<?xml version="1.0" encoding="utf-8"?>
<svg viewBox="0 0 400 400" xmlns="http://www.w3.org/2000/svg">
  <g transform="matrix(0.02745700255036354, 0, 0, -0.027965001761913303, 76.24726981293071, 224.33369780084035)" fill="#000000" stroke="none" style="">
    <path d="M461 1550 c-128 -34 -200 -91 -248 -196 -37 -81 -46 -201 -40 -549 4 -282 6 -316 26 -375 38 -117 121 -200 236 -236 66 -21 292 -30 366 -15 127 27 226 96 273 193 37 78 47 161 44 373 l-3 190 -250 0 -250 0 0 -120 0 -120 119 -3 119 -3 -6 -59 c-7 -82 -40 -139 -97 -168 -38 -20 -56 -23 -116 -19 -91 5 -130 27 -164 92 -24 48 -25 56 -29 286 -6 415 22 479 211 479 130 0 197 -57 198 -167 l0 -43 136 0 137 0 -6 88 c-8 112 -28 175 -74 242 -46 64 -125 112 -225 135 -95 21 -264 19 -357 -5z m334 -121 c110 -37 181 -116 187 -211 2 -33 -1 -43 -12 -43 -9 0 -16 11 -18 25 -6 64 -24 100 -68 139 -66 58 -127 76 -254 76 -95 0 -111 -3 -163 -28 -65 -33 -103 -76 -123 -143 -22 -74 -20 -692 2 -759 38 -109 131 -159 299 -159 243 0 325 95 325 375 l0 98 -142 3 c-196 4 -184 22 17 26 l155 3 0 -138 c0 -240 -42 -325 -185 -379 -70 -27 -267 -26 -344 0 -69 24 -122 72 -152 139 -24 52 -24 55 -24 412 l0 360 33 68 c55 111 142 155 309 156 69 1 109 -4 158 -20z" style="fill: rgb(166, 96, 204);"/>
    <path d="M8198 1555 c-135 -34 -227 -106 -269 -211 -24 -59 -24 -60 -24 -469 0 -379 1 -414 19 -460 42 -110 104 -172 215 -213 53 -20 91 -26 196 -30 148 -5 212 5 301 47 107 51 171 138 194 263 6 30 9 144 8 254 l-3 199 -247 3 -248 2 0 -125 0 -125 115 0 115 0 0 -44 c0 -137 -86 -215 -224 -204 -78 7 -127 34 -152 86 -17 33 -19 68 -22 337 -3 295 -2 301 20 344 35 68 65 85 159 90 143 6 206 -37 218 -148 l6 -56 134 -3 134 -3 -6 88 c-14 202 -87 309 -252 368 -69 24 -307 30 -387 10z m317 -126 c114 -35 195 -134 195 -239 0 -15 -5 -20 -17 -18 -13 2 -19 16 -23 50 -7 55 -30 90 -89 135 -58 45 -109 58 -231 58 -95 0 -111 -3 -163 -28 -65 -33 -103 -76 -123 -143 -21 -70 -20 -679 1 -751 17 -56 64 -111 118 -136 56 -27 184 -41 263 -28 180 28 243 123 244 364 l0 107 -140 0 c-118 0 -140 2 -140 15 0 13 24 15 156 15 l156 0 -4 -162 c-3 -144 -7 -169 -27 -215 -29 -66 -83 -115 -152 -139 -73 -26 -271 -26 -344 -1 -102 35 -156 102 -175 218 -13 85 -13 599 1 675 22 120 85 194 195 227 75 23 218 21 299 -4z" style="fill: rgb(166, 96, 204);"/>
    <path d="M1480 870 l0 -680 368 2 367 3 0 120 0 120 -232 3 -233 2 0 155 0 155 180 0 180 0 0 130 0 130 -180 0 -180 0 0 145 0 145 233 2 232 3 0 120 0 120 -367 3 -368 2 0 -680z m625 560 c0 -13 -34 -15 -237 -18 l-238 -2 0 -255 0 -255 195 0 c167 0 195 -2 195 -15 0 -13 -28 -15 -195 -15 l-195 0 0 -270 0 -270 240 0 c208 0 240 -2 240 -15 0 -13 -33 -15 -257 -13 l-258 3 -3 550 c-1 303 0 560 3 573 l5 22 253 -2 c216 -3 252 -5 252 -18z" style="fill: rgb(166, 96, 204);"/>
    <path d="M2482 1428 l3 -123 152 -3 153 -3 2 -552 3 -552 133 -3 132 -3 0 556 0 555 155 0 155 0 0 125 0 125 -445 0 -446 0 3 -122z m766 0 c3 -17 -9 -18 -152 -18 l-156 0 0 -555 c0 -487 -2 -555 -15 -555 -13 0 -15 68 -15 555 l0 555 -160 0 c-154 0 -160 1 -160 20 0 20 5 20 327 18 303 -3 328 -4 331 -20z" style="fill: rgb(166, 96, 204);"/>
    <path d="M4455 1538 c-3 -7 -4 -312 -3 -678 l3 -665 365 0 365 0 0 120 0 120 -232 3 -233 2 -2 553 -3 552 -128 3 c-96 2 -129 -1 -132 -10z m145 -654 l0 -554 240 0 c207 0 240 -2 240 -15 0 -13 -35 -15 -255 -15 l-255 0 0 568 c0 313 3 572 6 575 4 4 11 4 15 1 5 -3 9 -255 9 -560z" style="fill: rgb(166, 96, 204);"/>
    <path d="M5745 1538 c-15 -46 -355 -1322 -355 -1334 0 -11 24 -14 129 -14 115 0 130 2 135 18 3 9 17 62 31 117 15 55 31 115 37 133 l10 32 156 -2 156 -3 40 -147 41 -148 127 0 c70 0 129 3 131 8 2 4 -78 308 -177 677 l-181 670 -138 3 c-105 2 -138 0 -142 -10z m322 -633 c179 -595 182 -605 162 -605 -10 0 -31 55 -63 160 l-49 160 -232 0 -232 0 -33 -113 c-18 -61 -39 -133 -47 -160 -8 -28 -20 -47 -28 -47 -8 0 -15 5 -15 10 0 10 103 370 252 875 38 132 75 246 81 253 30 37 41 8 204 -533z" style="fill: rgb(166, 96, 204);"/>
    <path d="M5857 1310 c-59 -188 -195 -655 -193 -658 2 -1 102 -1 223 0 l219 3 -103 340 c-56 187 -107 354 -111 370 -9 28 -11 25 -35 -55z m72 -393 c22 -74 42 -144 46 -156 6 -20 3 -21 -84 -21 -63 0 -91 4 -91 12 0 30 80 312 86 305 3 -2 22 -65 43 -140z" style="fill: rgb(166, 96, 204);"/>
    <path d="M6690 870 l0 -680 130 0 130 0 0 347 c0 204 4 343 9 337 5 -5 76 -161 157 -347 l149 -337 127 0 128 0 0 680 0 681 -132 -3 -133 -3 -5 -337 -5 -336 -145 336 -146 337 -132 3 -132 3 0 -681z m410 45 l265 -525 3 530 c2 462 4 530 17 530 13 0 15 -73 15 -580 0 -326 -4 -580 -9 -580 -5 0 -13 6 -18 12 -6 7 -127 243 -269 525 l-259 511 -5 -521 c-4 -455 -7 -522 -20 -522 -13 0 -15 71 -18 565 -1 311 0 571 3 577 2 7 10 10 17 7 7 -2 132 -241 278 -529z" style="fill: rgb(166, 96, 204);"/>
  </g>
</svg>